<?xml version="1.0" encoding="UTF-8"?>
<svg id="Layer_2" data-name="Layer 2" xmlns="http://www.w3.org/2000/svg" viewBox="0 0 742.96 325.31">
  <defs>
    <style>
      .cls-1 {
        fill: #0cce6b;
      }
    </style>
  </defs>
  <g id="Layer_1-2" data-name="Layer 1">
    <g>
      <path class="cls-1" d="M134.37,84.34c6.79-15.84,14.54-30.8,23.25-44.88,8.38,2.01,17.51,3.02,27.4,3.02,19.11,0,37.29-5.95,54.55-17.85,5.86-4.19,8.8-8.3,8.8-12.32,0-2.34-1.09-4.27-3.27-5.78-2.18-1.51-4.95-2.26-8.3-2.26-.84,0-2.1.17-3.77.5-2.68.5-5.87,1.85-9.55,4.02-6.71,5.03-12.82,8.59-18.35,10.68-5.53,2.1-11.4,3.14-17.6,3.14-8.38,0-15.8-.88-22.25-2.64-6.45-1.76-14.04-4.4-22.75-7.92-10.06-4.02-18.98-7.04-26.77-9.05-7.79-2.01-17.14-3.02-28.03-3.02-13.07,0-25.1,2.81-36.08,8.42-10.98,5.62-19.65,13.24-26.02,22.88-6.37,9.64-9.55,20.07-9.55,31.3,0,7.88,1.63,15.08,4.9,21.62,3.27,6.54,7.71,11.69,13.32,15.46,5.61,3.77,11.77,5.66,18.48,5.66,4.02,0,7.04-.84,9.05-2.51,2.01-1.67,3.02-3.85,3.02-6.54,0-1.84-.59-3.35-1.76-4.53-1.17-1.17-3.1-2.51-5.78-4.02-4.69-2.85-8.34-6.03-10.94-9.55-2.6-3.52-3.9-8.8-3.9-15.84s1.72-13.53,5.15-19.99c3.43-6.45,8.71-11.82,15.84-16.09,7.12-4.27,16.05-6.41,26.77-6.41,6.87,0,13.07.8,18.6,2.39,5.53,1.59,12.23,4.07,20.11,7.42-9.55,16.76-17.22,32.14-23,46.13-5.78,14-13.54,34.65-23.25,61.97-2.18,6.54-3.52,10.48-4.02,11.82-4.19,11.73-8.04,21.37-11.56,28.91-3.52,7.54-7.92,13.83-13.2,18.86-5.28,5.03-11.53,7.54-18.73,7.54-4.86,0-8.8-1.38-11.82-4.15-3.02-2.77-4.52-7-4.52-12.7,0-2.51-.67-4.44-2.01-5.78-1.34-1.34-3.1-2.01-5.28-2.01-2.85,0-5.49,1.17-7.92,3.52-2.43,2.35-3.65,5.53-3.65,9.55,0,9.55,3.02,17.18,9.05,22.88,6.03,5.7,14.66,8.55,25.89,8.55,17.43,0,32.18-6.2,44.25-18.6,12.07-12.4,22.63-31.93,31.68-58.58,8.88-26.31,16.72-47.39,23.51-63.23Z"/>
      <path class="cls-1" d="M740.44,146.44c-1.68-1.26-3.61-1.88-5.78-1.88h-1.26c-2.85.34-5.03,1.85-6.54,4.52-5.87,10.9-12.95,20.36-21.24,28.41s-17.06,14.2-26.27,18.48c-9.22,4.27-18.02,6.41-26.4,6.41-10.06,0-17.81-2.89-23.25-8.67-5.45-5.78-8.17-13.95-8.17-24.51v-3.52c4.02.34,7.29.5,9.8.5,14.08,0,27.03-2.26,38.84-6.79,11.82-4.53,21.2-10.72,28.16-18.6,6.95-7.88,10.43-16.59,10.43-26.15,0-8.71-3.65-15.75-10.94-21.12-7.29-5.36-16.55-8.04-27.78-8.04-13.24,0-26.02,4.15-38.34,12.44-12.32,8.3-22.33,19.15-30.04,32.56-6.64,11.56-10.42,23.36-11.34,35.42-6.23,8.96-12.67,16.43-19.33,22.4-10.48,9.39-19.74,14.08-27.78,14.08-4.69,0-8.21-1.42-10.56-4.27-2.35-2.85-3.52-7.29-3.52-13.32,0-5.53.96-10.89,2.89-16.09,1.92-5.19,4.73-11.56,8.42-19.11,3.85-7.88,6.74-14.54,8.67-19.99,1.92-5.44,2.89-11.1,2.89-16.97,0-8.88-2.56-15.63-7.67-20.24-5.11-4.61-12.61-6.91-22.5-6.91-16.93,0-34.53,8.13-52.79,24.39,10.89-19.27,20.57-37.17,29.04-53.67,8.46-16.51,12.7-27.78,12.7-33.81,0-3.35-1.34-6.24-4.02-8.67-2.68-2.43-6.12-3.65-10.31-3.65-6.2,0-11.65,3.69-16.34,11.06-7.21,11.4-16.34,29.96-27.4,55.69-11.06,25.73-21.12,51.58-30.17,77.56-.84,2.4-1.63,4.72-2.4,6.99-7.49,11.01-15.92,19.99-25.3,26.95-12.66,9.39-26.36,14.08-41.1,14.08-10.06,0-17.81-2.89-23.25-8.67-5.45-5.78-8.17-13.95-8.17-24.51s2.35-20.03,7.04-29.92c4.69-9.89,10.68-18.01,17.98-24.39,7.29-6.37,14.62-9.55,22-9.55,2.85,0,5.07.67,6.66,2.01,1.59,1.34,2.39,3.1,2.39,5.28,0,1.68-.5,3.44-1.51,5.28-4.19.34-7.5,1.97-9.93,4.9-2.43,2.93-3.65,6.25-3.65,9.93s1.26,7.13,3.77,9.8c2.51,2.68,6.03,4.02,10.56,4.02,4.86,0,9.34-1.63,13.45-4.9,4.11-3.27,7.37-7.5,9.8-12.7,2.43-5.19,3.65-10.64,3.65-16.34,0-8.21-2.98-14.79-8.92-19.73-5.95-4.94-14.2-7.42-24.76-7.42-13.24,0-26.02,4.15-38.34,12.44-12.32,8.3-22.33,19.15-30.04,32.56-6.55,11.41-10.31,23.05-11.3,34.94-7.97,11.68-16.83,22.16-26.56,31.43-14.08,13.41-28.49,22.71-43.24,27.91,6.37-20.95,13.16-40.6,20.36-58.95,7.2-18.35,12.32-30.12,15.34-35.32,5.7-9.55,9.76-16.72,12.19-21.49,2.43-4.78,3.65-9.09,3.65-12.95,0-3.52-1.34-6.58-4.02-9.18-2.68-2.6-6.12-3.9-10.31-3.9-3.35,0-6.5,1.09-9.43,3.27-2.93,2.18-5.24,4.78-6.91,7.79-2.01,3.52-3.98,7.79-5.91,12.82-1.93,5.03-3.73,10.06-5.41,15.08-3.52,9.72-6.54,17.6-9.05,23.63-2.51,6.03-5.62,12.24-9.3,18.6-15.25,25.48-28.49,38.21-39.72,38.21-4.53,0-8.04-1.89-10.56-5.66-2.51-3.77-3.77-8.92-3.77-15.46,0-7.54,1.47-15.79,4.4-24.76,2.93-8.96,6.58-17.64,10.94-26.02,5.53-8.88,9.59-15.75,12.19-20.61,2.6-4.86,3.9-9.47,3.9-13.83,0-3.52-1.3-6.58-3.9-9.18-2.6-2.6-5.99-3.9-10.18-3.9-3.35,0-6.62,1.13-9.8,3.39-3.19,2.26-5.53,4.82-7.04,7.67-20.61,39.89-30.92,70.39-30.92,91.51,0,11.56,3.1,20.58,9.3,27.03,6.2,6.45,14.75,9.68,25.64,9.68,6.2,0,12.32-1.26,18.35-3.77s11.56-6.12,16.59-10.81l-2.51,8.3c-2.01,6.03-3.77,11.82-5.28,17.35-.67.33-3.61,1.26-8.8,2.76-15.08,5.03-27.91,9.76-38.46,14.21-10.56,4.44-19.99,10.52-28.28,18.23-8.3,7.71-12.44,16.76-12.44,27.15,0,9.05,3.27,16.25,9.8,21.62,6.54,5.36,15.25,8.04,26.15,8.04,17.26,0,32.26-6.5,45-19.48,12.74-12.99,23.55-32.81,32.43-59.46,17.6-6.54,33.35-15.55,47.26-27.03,12.3-10.15,22.53-20.27,30.71-30.36,1.09,3.26,2.5,6.34,4.26,9.24,4.61,7.63,11.14,13.54,19.61,17.72,8.46,4.19,18.14,6.29,29.04,6.29,19.61,0,37.84-5.95,54.68-17.85,2.66-1.88,5.24-3.89,7.76-6.01-1.22,4.91-2.12,9.18-2.68,12.8-.5,3.36.59,6.03,3.27,8.04,2.68,2.01,6.37,3.02,11.06,3.02,3.86,0,7.29-.84,10.31-2.51,3.02-1.68,4.78-3.77,5.28-6.29,3.18-17.6,8.21-35.86,15.08-54.8,3.52-8.38,8.88-16.72,16.09-25.01,7.2-8.3,14.83-15.08,22.88-20.36s15.17-7.92,21.37-7.92c3.18,0,5.44,1,6.79,3.02,1.34,2.01,2.01,5.45,2.01,10.31,0,3.86-.75,8.04-2.26,12.57-1.51,4.52-4.02,10.81-7.54,18.85-3.86,8.72-6.79,16.09-8.8,22.12-2.01,6.03-3.02,11.82-3.02,17.35,0,9.89,3.18,17.81,9.55,23.76,6.37,5.95,14.92,8.92,25.64,8.92,14.24,0,28.66-6.03,43.24-18.1,5.42-4.48,10.6-9.58,15.56-15.29,1.09,3.31,2.52,6.44,4.3,9.39,4.61,7.63,11.14,13.54,19.61,17.72,8.46,4.19,18.14,6.29,29.04,6.29,18.94,0,36.83-5.99,53.67-17.98,16.84-11.98,31.05-28.53,42.61-49.65.67-1.17,1.01-2.34,1.01-3.52,0-1.84-.84-3.39-2.51-4.65ZM643.28,117.91c8.3-8.38,16.72-12.57,25.27-12.57,2.68,0,5.03,1.13,7.04,3.39,2.01,2.26,3.02,5.49,3.02,9.68,0,9.72-4.19,17.43-12.57,23.13-8.38,5.7-19.44,8.55-33.18,8.55-1.85,0-4.61-.17-8.3-.5,4.19-12.73,10.43-23.29,18.73-31.68ZM164.66,292c-7.79,8.96-15.88,13.45-24.26,13.45-3.52,0-6.37-1-8.55-3.02-2.18-2.01-3.27-5.11-3.27-9.3,0-7.38,4.36-14,13.07-19.86,8.71-5.87,22.63-11.82,41.73-17.85-4.69,15.42-10.94,27.61-18.73,36.58Z"/>
    </g>
  </g>
</svg>