<?xml version="1.0" encoding="UTF-8"?>
<svg xmlns="http://www.w3.org/2000/svg" viewBox="0 0 64 64" width="256" height="256" role="img" aria-label="Tyche golf ball logo">
  <defs>
    <radialGradient id="ball-shade" cx="38%" cy="34%" r="65%">
      <stop offset="0%" stop-color="#ffffff"/>
      <stop offset="70%" stop-color="#f3f4f6"/>
      <stop offset="100%" stop-color="#d1d5db"/>
    </radialGradient>
  </defs>
  <circle cx="32" cy="32" r="26" fill="url(#ball-shade)" stroke="#0cce6b" stroke-width="2.5"/>
  <circle cx="21.5" cy="13.81" r="1.27" fill="#9ca3af" opacity="0.45"/>
  <circle cx="28.5" cy="13.81" r="1.36" fill="#9ca3af" opacity="0.45"/>
  <circle cx="35.5" cy="13.81" r="1.36" fill="#9ca3af" opacity="0.45"/>
  <circle cx="42.5" cy="13.81" r="1.27" fill="#9ca3af" opacity="0.45"/>
  <circle cx="18" cy="19.88" r="1.36" fill="#9ca3af" opacity="0.45"/>
  <circle cx="25" cy="19.88" r="1.52" fill="#9ca3af" opacity="0.45"/>
  <circle cx="32" cy="19.88" r="1.58" fill="#9ca3af" opacity="0.45"/>
  <circle cx="39" cy="19.88" r="1.52" fill="#9ca3af" opacity="0.45"/>
  <circle cx="46" cy="19.88" r="1.36" fill="#9ca3af" opacity="0.45"/>
  <circle cx="14.5" cy="25.94" r="1.36" fill="#9ca3af" opacity="0.45"/>
  <circle cx="21.5" cy="25.94" r="1.58" fill="#9ca3af" opacity="0.45"/>
  <circle cx="28.5" cy="25.94" r="1.76" fill="#9ca3af" opacity="0.45"/>
  <circle cx="35.5" cy="25.94" r="1.76" fill="#9ca3af" opacity="0.45"/>
  <circle cx="42.5" cy="25.94" r="1.58" fill="#9ca3af" opacity="0.45"/>
  <circle cx="49.5" cy="25.94" r="1.36" fill="#9ca3af" opacity="0.45"/>
  <circle cx="11" cy="32" r="1.27" fill="#9ca3af" opacity="0.45"/>
  <circle cx="18" cy="32" r="1.52" fill="#9ca3af" opacity="0.45"/>
  <circle cx="25" cy="32" r="1.76" fill="#9ca3af" opacity="0.45"/>
  <circle cx="32" cy="32" r="2" fill="#9ca3af" opacity="0.45"/>
  <circle cx="39" cy="32" r="1.76" fill="#9ca3af" opacity="0.45"/>
  <circle cx="46" cy="32" r="1.52" fill="#9ca3af" opacity="0.45"/>
  <circle cx="53" cy="32" r="1.27" fill="#9ca3af" opacity="0.45"/>
  <circle cx="14.5" cy="38.06" r="1.36" fill="#9ca3af" opacity="0.45"/>
  <circle cx="21.5" cy="38.06" r="1.58" fill="#9ca3af" opacity="0.45"/>
  <circle cx="28.5" cy="38.06" r="1.76" fill="#9ca3af" opacity="0.45"/>
  <circle cx="35.5" cy="38.06" r="1.76" fill="#9ca3af" opacity="0.45"/>
  <circle cx="42.5" cy="38.06" r="1.58" fill="#9ca3af" opacity="0.45"/>
  <circle cx="49.5" cy="38.06" r="1.36" fill="#9ca3af" opacity="0.45"/>
  <circle cx="18" cy="44.12" r="1.36" fill="#9ca3af" opacity="0.45"/>
  <circle cx="25" cy="44.12" r="1.52" fill="#9ca3af" opacity="0.45"/>
  <circle cx="32" cy="44.12" r="1.58" fill="#9ca3af" opacity="0.45"/>
  <circle cx="39" cy="44.12" r="1.52" fill="#9ca3af" opacity="0.45"/>
  <circle cx="46" cy="44.12" r="1.36" fill="#9ca3af" opacity="0.45"/>
  <circle cx="21.5" cy="50.19" r="1.27" fill="#9ca3af" opacity="0.45"/>
  <circle cx="28.5" cy="50.19" r="1.36" fill="#9ca3af" opacity="0.45"/>
  <circle cx="35.5" cy="50.19" r="1.36" fill="#9ca3af" opacity="0.45"/>
  <circle cx="42.5" cy="50.19" r="1.27" fill="#9ca3af" opacity="0.45"/>
  <ellipse cx="24" cy="22" rx="6" ry="3.5" fill="#ffffff" opacity="0.55"/>
  <path d="M32 4 a28 28 0 0 1 24 14" fill="none" stroke="#0cce6b" stroke-width="3" stroke-linecap="round"/>
</svg>
